<mxfile host="app.diagrams.net" modified="2024-06-01T18:51:18.294Z" agent="Mozilla/5.0 (Windows NT 10.0; Win64; x64) AppleWebKit/537.36 (KHTML, like Gecko) Chrome/124.0.0.0 Safari/537.36" etag="av-3N_Zp0GgqRUKywbxj" version="24.4.9" type="google">
  <diagram name="Página-1" id="0U2ivnNDzojnHb1i6xHv">
    <mxGraphModel grid="1" page="1" gridSize="10" guides="1" tooltips="1" connect="1" arrows="1" fold="1" pageScale="1" pageWidth="827" pageHeight="1169" math="0" shadow="0">
      <root>
        <mxCell id="0" />
        <mxCell id="1" parent="0" />
        <mxCell id="1c-ykWGa07TICK9YAIHB-7" style="edgeStyle=orthogonalEdgeStyle;rounded=0;orthogonalLoop=1;jettySize=auto;html=1;exitX=1;exitY=1;exitDx=0;exitDy=0;entryX=1;entryY=0;entryDx=0;entryDy=0;curved=1;endArrow=none;endFill=0;strokeColor=#FFFFFF;" edge="1" parent="1" source="1c-ykWGa07TICK9YAIHB-2" target="1c-ykWGa07TICK9YAIHB-4">
          <mxGeometry relative="1" as="geometry" />
        </mxCell>
        <mxCell id="1c-ykWGa07TICK9YAIHB-9" style="edgeStyle=orthogonalEdgeStyle;rounded=0;orthogonalLoop=1;jettySize=auto;html=1;exitX=0;exitY=1;exitDx=0;exitDy=0;entryX=0;entryY=0;entryDx=0;entryDy=0;endArrow=none;endFill=0;curved=1;strokeColor=#FFFFFF;" edge="1" parent="1" source="1c-ykWGa07TICK9YAIHB-2" target="1c-ykWGa07TICK9YAIHB-4">
          <mxGeometry relative="1" as="geometry" />
        </mxCell>
        <mxCell id="1c-ykWGa07TICK9YAIHB-14" style="edgeStyle=orthogonalEdgeStyle;rounded=0;orthogonalLoop=1;jettySize=auto;html=1;exitX=0;exitY=1;exitDx=0;exitDy=0;entryX=0;entryY=0;entryDx=0;entryDy=0;curved=1;endArrow=none;endFill=0;" edge="1" parent="1" source="1c-ykWGa07TICK9YAIHB-2" target="1c-ykWGa07TICK9YAIHB-4">
          <mxGeometry relative="1" as="geometry" />
        </mxCell>
        <mxCell id="1c-ykWGa07TICK9YAIHB-15" style="edgeStyle=orthogonalEdgeStyle;rounded=0;orthogonalLoop=1;jettySize=auto;html=1;exitX=1;exitY=1;exitDx=0;exitDy=0;entryX=1;entryY=0;entryDx=0;entryDy=0;curved=1;endArrow=none;endFill=0;" edge="1" parent="1" source="1c-ykWGa07TICK9YAIHB-2" target="1c-ykWGa07TICK9YAIHB-4">
          <mxGeometry relative="1" as="geometry" />
        </mxCell>
        <mxCell id="1c-ykWGa07TICK9YAIHB-2" value="&lt;font face=&quot;Times New Roman&quot;&gt;Dirección General&lt;/font&gt;" style="rounded=1;whiteSpace=wrap;html=1;fillColor=#9bb0cb;strokeColor=#000000;" vertex="1" parent="1">
          <mxGeometry x="317.25" y="80" width="165.5" height="70" as="geometry" />
        </mxCell>
        <mxCell id="1c-ykWGa07TICK9YAIHB-4" value="&lt;font face=&quot;Times New Roman&quot;&gt;Operarios&lt;br&gt;Encargados de mantenimiento&lt;br&gt;&lt;/font&gt;" style="rounded=1;whiteSpace=wrap;html=1;fillColor=#9bb0cb;strokeColor=#000000;" vertex="1" parent="1">
          <mxGeometry x="230" y="370" width="340" height="80" as="geometry" />
        </mxCell>
        <mxCell id="1c-ykWGa07TICK9YAIHB-10" value="&lt;font face=&quot;Times New Roman&quot;&gt;Gerencia de producción&lt;br&gt;Ventas&lt;br&gt;Compra&lt;br&gt;Finanzas&lt;br&gt;Recursos Huamos&lt;br&gt;&lt;/font&gt;" style="text;html=1;align=center;verticalAlign=middle;whiteSpace=wrap;rounded=0;" vertex="1" parent="1">
          <mxGeometry x="347" y="200" width="106" height="120" as="geometry" />
        </mxCell>
        <mxCell id="1c-ykWGa07TICK9YAIHB-11" value="" style="ellipse;whiteSpace=wrap;html=1;rotation=60;fillColor=#9bb0cb;strokeColor=#000000;fontColor=#ffffff;" vertex="1" parent="1">
          <mxGeometry x="470" y="200" width="240" height="80" as="geometry" />
        </mxCell>
        <mxCell id="1c-ykWGa07TICK9YAIHB-12" value="" style="ellipse;whiteSpace=wrap;html=1;rotation=30;direction=south;fillColor=#9bb0cb;strokeColor=#000000;" vertex="1" parent="1">
          <mxGeometry x="160" y="120" width="80" height="240" as="geometry" />
        </mxCell>
        <mxCell id="1c-ykWGa07TICK9YAIHB-13" value="&lt;font face=&quot;Times New Roman&quot;&gt;Estudio Contable&lt;br&gt;&lt;br&gt;Seguridad e higiene&lt;br&gt;&lt;br&gt;Mantenimiento&lt;br&gt;Web&lt;br&gt;&lt;/font&gt;" style="text;html=1;align=center;verticalAlign=middle;whiteSpace=wrap;rounded=0;rotation=-30;" vertex="1" parent="1">
          <mxGeometry x="551.5" y="185" width="77" height="110" as="geometry" />
        </mxCell>
      </root>
    </mxGraphModel>
  </diagram>
</mxfile>
